<svg width="160" height="160" viewBox="0 0 160 160" fill="none" xmlns="http://www.w3.org/2000/svg">
<g clip-path="url(#clip0_22836_39)">
<path d="M79.9873 160.013C35.8748 160.013 -0.0126953 124.125 -0.0126953 80.0125C-0.0126953 35.9 35.8748 0.0125122 79.9873 0.0125122C124.1 0.0125122 159.987 35.9 159.987 80.0125C159.987 124.125 124.1 160.013 79.9873 160.013ZM79.9873 13.625C43.3748 13.625 13.5998 43.4125 13.5998 80.0125C13.5998 116.625 43.3873 146.4 79.9873 146.4C116.587 146.4 146.375 116.625 146.375 80.0125C146.375 43.4125 116.587 13.625 79.9873 13.625Z" fill="#DB4437"/>
<path d="M139.213 129.663L128.675 140.175L20.7876 33.0125L31.3251 22.5L139.213 129.663Z" fill="#DB4437"/>
</g>
<defs>
<clipPath id="clip0_22836_39">
<rect width="160" height="160" fill="white"/>
</clipPath>
</defs>
</svg>
